<svg width="13" height="13" viewBox="0 0 13 13" fill="none" xmlns="http://www.w3.org/2000/svg">
<path d="M10.206 1.04999C11.522 1.88999 12.838 3.68199 12.838 6.01999C12.838 9.35199 10.15 12.04 6.81799 12.04C3.48599 12.04 0.797985 9.35199 0.797985 6.01999C0.797985 4.33999 1.46999 2.81399 2.57599 1.74999C1.91799 1.76399 1.04999 1.63799 -1.45733e-05 1.34399L0.517985 0.713987C2.02999 0.713987 3.33199 0.461987 4.42399 -1.27554e-05L4.73199 0.251987C4.45199 1.41399 4.43799 2.74399 4.70399 4.22799L4.18599 4.84399C3.70999 3.86399 3.42999 3.03799 3.33199 2.37999C2.54799 3.14999 1.79199 4.38199 1.79199 6.01999C1.79199 8.80599 4.03199 11.046 6.81799 11.046C9.58999 11.046 11.844 8.80599 11.844 6.01999C11.844 3.56999 10.122 2.15599 9.64599 1.86199L10.206 1.04999Z" fill="#FF7A3D"/>
</svg>
